<svg version="1.1" id="Layer_1" xmlns="http://www.w3.org/2000/svg" xmlns:xlink="http://www.w3.org/1999/xlink" x="0px" y="0px"
	 width="100%" viewBox="0 0 512 512" enable-background="new 0 0 512 512" xml:space="preserve">
<path fill="#000000" opacity="1.000000" stroke="none" 
	d="
M231.000000,1.000000 
	C249.687561,1.000000 268.375122,1.000000 287.806824,1.205623 
	C294.710938,3.385580 301.204498,3.521069 307.478119,4.821422 
	C339.160492,11.388333 368.779449,23.166319 395.971680,40.740009 
	C419.008545,55.628208 439.119812,73.787209 456.489594,95.102264 
	C480.053925,124.018852 496.365112,156.511063 505.853333,192.489151 
	C509.529297,206.427795 511.716339,220.644897 513.000000,235.000000 
	C513.000000,249.687561 513.000000,264.375122 512.975403,279.932190 
	C511.770050,288.813232 510.728790,296.848358 509.382568,304.832031 
	C505.208923,329.583893 496.822632,352.962189 485.281311,375.147430 
	C475.687012,393.589996 464.098755,410.724304 450.149414,426.287994 
	C437.686981,440.192688 424.236084,452.935425 409.254303,464.038422 
	C394.675598,474.842682 379.064545,483.880859 362.488342,491.338257 
	C343.792908,499.749146 324.476074,505.919983 304.294098,509.598511 
	C299.186829,510.529388 293.682068,510.054901 289.000000,513.000000 
	C267.979095,513.000000 246.958206,513.000000 225.239349,512.725098 
	C217.768982,510.214111 210.629303,509.894318 203.693497,508.482666 
	C183.422195,504.356934 164.045013,497.576752 145.467087,488.660278 
	C127.918938,480.237976 111.500168,469.887238 96.347244,457.579865 
	C82.762039,446.545807 70.305862,434.369507 59.116074,420.935120 
	C43.525593,402.217163 30.890985,381.643921 21.214577,359.274780 
	C13.620406,341.719269 7.946532,323.595886 4.468486,304.748199 
	C3.497719,299.487549 4.044241,293.820862 1.000000,289.000000 
	C1.000000,267.979095 1.000000,246.958206 1.281218,225.241577 
	C3.364122,221.581192 3.006684,218.117950 3.487638,214.922180 
	C7.506672,188.217133 16.158659,162.994263 28.453075,139.119049 
	C45.008747,106.968674 67.656540,79.636551 95.804459,56.833282 
	C119.294403,37.803535 145.422867,23.661709 173.860748,13.637568 
	C192.392609,7.105218 211.644775,3.816466 231.000000,1.000000 
M358.057953,469.451874 
	C363.927032,466.317780 369.896637,463.356964 375.647797,460.019623 
	C400.638153,445.518188 422.138733,426.974548 440.283813,404.446106 
	C454.475494,386.826080 465.850800,367.581390 474.539368,346.755005 
	C489.663666,310.502045 495.406158,272.734222 491.484222,233.669205 
	C489.525818,214.162018 485.133728,195.127396 478.317108,176.638779 
	C467.067017,146.125473 450.313629,119.050354 428.113434,95.402817 
	C412.325043,78.585075 394.321411,64.465157 374.201263,53.056458 
	C332.490082,29.405003 287.939270,18.563408 239.913910,22.263903 
	C218.419113,23.920137 197.597916,28.155050 177.339645,35.491463 
	C146.605438,46.621666 119.285156,63.385731 95.539406,85.719391 
	C74.400192,105.601532 57.540600,128.750259 45.009205,155.042694 
	C27.060831,192.700592 18.958273,232.106430 22.232597,273.870270 
	C23.851768,294.522675 27.687525,314.590576 34.640251,334.081421 
	C48.426144,372.727936 70.351387,405.827850 101.175095,433.103271 
	C121.051964,450.692047 143.193680,464.429565 167.590759,474.680084 
	C195.945633,486.593445 225.553497,492.295837 256.257538,492.641083 
	C268.408417,492.777679 280.410339,491.403625 292.420898,489.721680 
	C315.161469,486.537079 336.684967,479.539825 358.057953,469.451874 
z"/>
<path fill="#000000" opacity="1.000000" stroke="none" 
	d="
M219.865906,202.847656 
	C228.881485,193.933807 239.456680,189.673416 251.697250,188.511154 
	C271.549622,186.626144 287.844208,193.511688 299.846008,208.872284 
	C315.562225,228.986771 314.878204,256.932373 298.721527,276.538971 
	C291.561523,285.227844 282.704895,290.861481 272.123688,293.950073 
	C268.027954,295.145569 267.307495,297.634857 267.320526,301.394989 
	C267.420441,330.216919 267.329773,359.039459 267.410004,387.861481 
	C267.423767,392.806824 265.235077,396.343750 260.954102,398.119049 
	C256.333679,400.035156 250.809311,397.912933 248.145721,394.045959 
	C246.628311,391.843018 246.620148,389.385132 246.621597,386.868103 
	C246.637894,358.545654 246.496140,330.222015 246.746429,301.901794 
	C246.792847,296.650177 244.785049,294.560394 240.016510,293.344940 
	C222.158508,288.793243 205.921951,268.860809 203.497284,250.598251 
	C201.554871,235.967957 204.878677,223.024597 212.533478,210.799973 
	C214.427963,207.774536 217.303101,205.717957 219.865906,202.847656 
M270.926849,212.561691 
	C258.911530,207.071106 247.477997,208.574677 237.074493,216.246994 
	C223.737122,226.082962 220.563309,244.452469 229.151184,259.213928 
	C237.053345,272.796844 255.198273,278.242126 270.164612,271.821106 
	C284.672577,265.596802 293.779144,247.288925 287.902283,231.581924 
	C284.739807,223.129715 279.150696,217.280441 270.926849,212.561691 
z"/>
</svg>